<svg width="29" height="29" viewBox="0 0 29 29" fill="none" xmlns="http://www.w3.org/2000/svg">
<path d="M14.5 4.83341C19.8287 4.83341 24.1666 9.17133 24.1666 14.5001C24.1666 19.8288 19.8287 24.1667 14.5 24.1667C9.17121 24.1667 4.83329 19.8288 4.83329 14.5001C4.83329 9.17133 9.17121 4.83341 14.5 4.83341ZM14.5 2.41675C7.82633 2.41675 2.41663 7.82646 2.41663 14.5001C2.41663 21.1737 7.82633 26.5834 14.5 26.5834C21.1736 26.5834 26.5833 21.1737 26.5833 14.5001C26.5833 7.82646 21.1736 2.41675 14.5 2.41675ZM19.0916 18.6084L15.7083 14.0977V8.45842H13.2916V14.9025L17.1583 20.0572L19.0916 18.6072V18.6084Z" fill="#3B3A48"/>
</svg>
