<svg width="120" height="120" viewBox="0 0 120 120" fill="none" xmlns="http://www.w3.org/2000/svg">
<path d="M112.757 0L60 60L112.757 120H117.072C118.689 120 120 118.689 120 117.072V2.92758C120 1.31086 118.689 0 117.072 0H112.757Z" fill="#2EA2EF"/>
<path d="M0 2.92758V117.072C0 118.689 1.31086 120 2.92758 120H112.757V0H2.92758C1.31086 0 0 1.31086 0 2.92758Z" fill="#54BBFF"/>
<path d="M105.513 7.24341L60 60.0001L105.513 112.757H112.757V7.24341H105.513Z" fill="#C6E8FF"/>
<path d="M105.513 7.24341H7.24335V112.756H105.513V7.24341Z" fill="#DEF1FF"/>
<path d="M63.9525 27.5357C63.447 27.366 62.9285 27.2839 62.4152 27.2839C60.9321 27.2839 59.4959 27.969 58.5656 29.1971L46.4934 45.1328C44.883 47.2588 45.3007 50.2874 47.4267 51.898C48.2991 52.5589 49.323 52.8784 50.3391 52.8781C51.7992 52.8781 53.2423 52.2186 54.192 50.9649L57.5859 46.4844V87.8877C57.5859 90.5546 59.7478 92.7167 62.415 92.7167C65.0819 92.7167 67.2441 90.5549 67.2441 87.8877V32.113C67.2434 30.039 65.9189 28.1964 63.9525 27.5357Z" fill="#2EA2EF"/>
</svg>
