<svg width="120" height="120" viewBox="0 0 120 120" fill="none" xmlns="http://www.w3.org/2000/svg">
<path d="M112.757 0L60 60L112.757 120H117.072C118.689 120 120 118.689 120 117.072V2.92758C120 1.31086 118.689 0 117.072 0H112.757Z" fill="#2EA2EF"/>
<path d="M0 2.92758V117.072C0 118.689 1.31086 120 2.92758 120H112.757V0H2.92758C1.31086 0 0 1.31086 0 2.92758Z" fill="#54BBFF"/>
<path d="M105.513 7.24329L60 59.9999L105.513 112.757H112.757V7.24329H105.513Z" fill="#C6E8FF"/>
<path d="M105.513 7.24329H7.24335V112.756H105.513V7.24329Z" fill="#DEF1FF"/>
<path d="M60 92.7165C50.7471 92.7165 43.2192 85.1886 43.2192 75.9357C43.2192 73.2688 45.3811 71.1067 48.0483 71.1067C50.7152 71.1067 52.8773 73.2685 52.8773 75.9357C52.8773 79.8631 56.0726 83.0584 60 83.0584C63.9277 83.0584 67.1227 79.8631 67.1227 75.9357V71.9518C67.1227 68.0244 63.9277 64.8292 60 64.8292C57.333 64.8292 55.1709 62.6673 55.1709 60.0001C55.1709 57.3331 57.3328 55.171 60 55.171C63.9277 55.171 67.1227 51.9758 67.1227 48.0484V44.0645C67.1227 40.137 63.9277 36.9418 60 36.9418C56.0726 36.9418 52.8773 40.137 52.8773 44.0645C52.8773 46.7314 50.7155 48.8935 48.0483 48.8935C45.3813 48.8935 43.2192 46.7317 43.2192 44.0645C43.2192 34.8116 50.7471 27.2837 60 27.2837C69.2529 27.2837 76.7808 34.8116 76.7808 44.0645V48.0484C76.7808 52.7216 74.861 56.9544 71.768 60.0001C74.861 63.0458 76.7808 67.2786 76.7808 71.9518V75.9357C76.7808 85.1886 69.2529 92.7165 60 92.7165Z" fill="#2EA2EF"/>
</svg>
