<svg width="120" height="120" viewBox="0 0 120 120" fill="none" xmlns="http://www.w3.org/2000/svg">
<path d="M112.757 0L60 60L112.757 120H117.072C118.689 120 120 118.689 120 117.072V2.92758C120 1.31086 118.689 0 117.072 0H112.757Z" fill="#2EA2EF"/>
<path d="M0 2.92758V117.072C0 118.689 1.31086 120 2.92758 120H112.757V0H2.92758C1.31086 0 0 1.31086 0 2.92758Z" fill="#54BBFF"/>
<path d="M105.513 7.24341L60 60L105.513 112.757H112.757V7.24341H105.513Z" fill="#C6E8FF"/>
<path d="M105.513 7.24341H7.24336V112.756H105.513V7.24341Z" fill="#DEF1FF"/>
<path d="M71.9517 92.7163H48.0483C46.3153 92.7163 44.7152 91.7877 43.8556 90.2832C42.9959 88.7788 43.0081 86.9289 43.8879 85.4359L66.1404 47.6727C66.7833 46.5821 67.1229 45.3348 67.1229 44.0647C67.1229 40.1373 63.9277 36.9421 60.0002 36.9421C56.0728 36.9421 52.8776 40.1371 52.8776 44.0645C52.8776 46.7314 50.7157 48.8935 48.0485 48.8935C45.3816 48.8935 43.2195 46.7317 43.2195 44.0645C43.2195 34.8116 50.7474 27.2837 60.0002 27.2837C69.2531 27.2837 76.781 34.8116 76.781 44.0645C76.781 47.0584 75.9788 50.0017 74.461 52.5763L56.4992 83.0584H71.9522C74.6192 83.0584 76.7813 85.2203 76.7813 87.8875C76.7813 90.5546 74.6187 92.7163 71.9517 92.7163Z" fill="#2EA2EF"/>
</svg>
